<svg xmlns="http://www.w3.org/2000/svg" viewBox="0 0 760 520" role="img" aria-labelledby="title desc">
  <title id="title">Automic Vault line drawing</title>
  <desc id="desc">A line art drawing of a secure vault console and sealed capability paths.</desc>
  <defs>
    <linearGradient id="ink" x1="70" x2="690" y1="52" y2="470" gradientUnits="userSpaceOnUse">
      <stop stop-color="#d6c7a1"/>
      <stop offset="0.72" stop-color="#ffb347"/>
      <stop offset="1" stop-color="#d83a2f"/>
    </linearGradient>
    <filter id="rough">
      <feTurbulence baseFrequency="0.9" numOctaves="2" seed="11" type="fractalNoise"/>
      <feDisplacementMap in="SourceGraphic" scale="0.7"/>
    </filter>
  </defs>
  <g fill="none" stroke="url(#ink)" stroke-linecap="square" stroke-linejoin="miter" filter="url(#rough)">
    <path d="M84 450h592"/>
    <path d="M126 142h296v216H126z" stroke-width="4"/>
    <path d="M154 170h240v160H154z" stroke-width="2.5" opacity=".72"/>
    <path d="M198 236h154M198 274h118M198 312h64" stroke-width="3" opacity=".62"/>
    <path d="M422 184l96-48h126l38 52v170H422z" stroke-width="4"/>
    <path d="M476 214h154M476 246h112M476 278h154" stroke-width="3" opacity=".56"/>
    <circle cx="552" cy="356" r="72" stroke-width="5"/>
    <circle cx="552" cy="356" r="46" stroke-width="3"/>
    <circle cx="552" cy="356" r="16" stroke-width="5"/>
    <path d="M552 284v32M552 396v32M480 356h32M592 356h32" stroke-width="4"/>
    <path d="M505 309l22 22M599 309l-22 22M505 403l22-22M599 403l-22-22" stroke-width="3"/>
    <path d="M390 390h92M622 390h60" stroke-width="3" opacity=".6"/>
    <path d="M122 396h196l34 32h118" stroke-width="3"/>
    <path d="M176 112l34-38h114l34 38" stroke-width="3" opacity=".62"/>
    <path d="M250 74v68" stroke-width="3"/>
    <path d="M230 116h40" stroke-width="3"/>
    <path d="M566 96h66M599 64v64" stroke-width="2" opacity=".48"/>
    <path d="M96 210h-42v152h42M686 210h34v152h-34" stroke-width="2" opacity=".5"/>
    <path d="M54 286h72M644 286h76" stroke-width="2" opacity=".36"/>
    <path d="M328 166l46-34h92" stroke-width="3"/>
    <path d="M468 132l-14-14M468 132l-14 14" stroke-width="3"/>
  </g>
  <g fill="#ffb347" opacity=".62">
    <rect x="188" y="202" width="9" height="9"/>
    <rect x="204" y="202" width="9" height="9"/>
    <rect x="220" y="202" width="9" height="9"/>
    <rect x="476" y="170" width="8" height="8"/>
    <rect x="492" y="170" width="8" height="8"/>
    <rect x="508" y="170" width="8" height="8"/>
  </g>
</svg>
